<?xml version="1.0" standalone="no"?>
<!DOCTYPE svg PUBLIC "-//W3C//DTD SVG 20010904//EN"
 "http://www.w3.org/TR/2001/REC-SVG-20010904/DTD/svg10.dtd">
<svg version="1.0" xmlns="http://www.w3.org/2000/svg"
 width="1032.000000pt" height="1032.000000pt" viewBox="0 0 1032.000000 1032.000000"
 preserveAspectRatio="xMidYMid meet">
<metadata>
Created by potrace 1.11, written by Peter Selinger 2001-2013
</metadata>
<g transform="translate(0.000000,1032.000000) scale(0.100000,-0.100000)"
fill="#000000" stroke="none">
<path d="M5985 9885 c-27 -8 -62 -18 -77 -21 -16 -4 -28 -10 -28 -15 0 -5 -6
-9 -13 -9 -22 0 -94 -73 -117 -119 -22 -45 -29 -108 -18 -167 18 -93 93 -181
205 -241 l79 -42 27 -73 c15 -40 32 -81 38 -91 5 -9 16 -39 25 -65 9 -26 22
-60 29 -77 34 -78 85 -208 85 -215 0 -4 10 -29 22 -56 11 -27 20 -49 18 -49
-2 0 3 -11 10 -25 8 -14 15 -27 16 -30 1 -6 12 -35 23 -65 5 -11 9 -24 11 -30
1 -5 7 -19 13 -30 6 -11 12 -24 13 -30 1 -8 70 -184 114 -290 4 -11 20 -51 35
-90 15 -38 34 -83 41 -100 7 -16 46 -115 87 -220 40 -104 78 -199 82 -210 5
-11 9 -22 10 -25 1 -3 7 -18 13 -33 7 -16 12 -31 12 -33 0 -3 9 -26 21 -51 12
-26 22 -72 24 -107 2 -50 -2 -69 -23 -106 -14 -25 -31 -48 -37 -52 -5 -4 -6
-8 -2 -8 4 0 -13 -29 -38 -65 -25 -36 -45 -69 -45 -75 0 -5 -4 -10 -10 -10 -5
0 -10 -5 -10 -10 0 -11 -34 -62 -57 -87 -6 -7 -15 -22 -18 -33 -3 -11 -10 -20
-14 -20 -5 0 -14 -13 -21 -30 -7 -16 -16 -30 -21 -30 -5 0 -9 -7 -9 -15 0 -8
-4 -15 -10 -15 -5 0 -10 -7 -10 -15 0 -8 -3 -15 -8 -15 -4 0 -12 -8 -17 -18
-23 -42 -71 -116 -85 -131 -8 -9 -21 -27 -27 -41 -7 -14 -49 -79 -93 -145 -44
-66 -83 -127 -87 -135 -3 -8 -9 -17 -12 -20 -13 -11 -61 -90 -61 -100 0 -5 -5
-10 -10 -10 -6 0 -13 -8 -17 -17 -3 -10 -16 -32 -29 -49 -13 -17 -20 -34 -17
-38 4 -3 1 -6 -6 -6 -6 0 -15 -8 -19 -17 -7 -19 -161 -254 -171 -263 -8 -7
-29 -41 -38 -60 -4 -8 -9 -17 -12 -20 -13 -11 -51 -70 -51 -79 0 -5 -3 -11 -7
-13 -7 -3 -61 -79 -73 -103 -3 -5 -32 -50 -64 -99 -99 -149 -219 -417 -195
-432 6 -3 6 -10 1 -17 -10 -13 -13 -156 -4 -171 3 -5 7 -25 8 -45 2 -20 11
-61 19 -91 8 -30 17 -64 20 -76 3 -12 11 -40 20 -63 8 -23 14 -43 14 -46 1
-10 13 -61 18 -75 4 -8 8 -26 10 -40 2 -14 6 -32 10 -40 3 -8 7 -18 8 -22 2
-5 3 -9 4 -10 2 -2 4 -13 7 -25 2 -12 15 -61 30 -110 14 -48 27 -95 29 -103 1
-8 8 -35 15 -60 7 -25 14 -52 15 -60 2 -8 4 -15 5 -15 1 0 3 -7 5 -15 6 -26
71 -258 100 -360 9 -30 18 -62 20 -71 2 -9 9 -34 15 -55 23 -77 23 -102 1
-133 -27 -37 -78 -152 -85 -188 -2 -15 -9 -48 -14 -73 -9 -48 -8 -161 2 -220
13 -75 17 -92 38 -148 109 -292 362 -478 638 -469 36 2 71 6 78 10 6 5 12 6
12 3 0 -10 105 26 155 52 79 43 155 111 202 182 28 42 73 133 78 155 1 6 7 28
13 50 32 112 32 308 1 367 -6 10 -8 18 -5 18 2 0 -4 25 -15 55 -49 141 -132
258 -239 339 -30 22 -58 45 -61 49 -3 5 -9 8 -13 8 -18 -3 -66 32 -66 48 0 10
-3 21 -7 25 -4 3 -8 12 -9 19 -1 7 -10 39 -20 72 -10 33 -19 63 -20 68 -1 4
-3 9 -4 12 -1 3 -3 8 -4 13 -1 4 -8 25 -15 47 -7 22 -19 65 -27 95 -8 30 -17
62 -21 70 -3 8 -7 17 -8 20 0 3 -10 34 -22 70 -12 36 -23 74 -25 85 -1 11 -6
22 -10 25 -4 3 -9 18 -12 33 -2 14 -7 31 -11 37 -3 5 -8 19 -10 31 -2 12 -24
82 -49 158 -24 75 -46 145 -48 156 -1 11 -6 22 -10 25 -6 5 -25 71 -52 177 -3
10 -9 32 -14 48 -22 76 3 166 75 271 35 52 77 116 88 135 5 10 35 58 65 106
30 48 57 92 59 97 2 6 8 15 13 21 5 5 57 88 116 182 59 95 133 214 165 264 31
50 57 96 57 100 0 5 5 9 10 9 6 0 10 4 10 9 0 9 120 205 140 228 5 7 10 17 10
23 0 5 5 10 10 10 6 0 10 4 10 10 0 12 101 173 115 182 5 4 7 8 2 8 -7 0 60
109 74 120 4 3 9 15 13 28 4 12 12 22 17 22 5 0 9 4 9 9 0 5 27 51 59 102 143
225 186 312 207 419 8 45 11 180 4 180 -3 0 -7 15 -8 33 -2 17 -8 50 -14 72
-6 22 -12 42 -13 45 0 3 -11 27 -23 54 -12 27 -22 51 -22 53 0 2 -11 29 -25
59 -14 30 -25 57 -25 59 0 2 -14 35 -31 72 -17 38 -39 88 -49 113 -10 25 -29
68 -41 95 -13 28 -24 52 -24 55 -1 3 -6 16 -12 30 -6 14 -36 86 -67 160 -32
74 -61 144 -66 155 -31 69 -67 151 -70 160 -6 19 -31 80 -42 105 -6 14 -12 27
-13 30 0 3 -11 27 -23 54 -12 27 -22 50 -22 52 0 2 -9 24 -20 49 -11 25 -29
65 -40 90 -11 25 -20 47 -20 50 0 3 -10 27 -21 53 -12 26 -28 63 -36 82 -9 19
-21 49 -29 65 -21 48 -43 105 -43 110 0 3 -7 18 -16 33 -8 15 -24 49 -35 75
-19 45 -19 50 -3 65 23 23 52 94 56 134 4 47 -17 123 -48 170 -38 57 -76 98
-92 98 -7 0 -13 4 -13 9 0 14 -81 56 -155 81 -85 28 -221 35 -290 15z"/>
<path d="M4280 9648 c-59 -10 -170 -49 -170 -60 0 -4 -6 -8 -12 -8 -28 -1
-143 -131 -143 -162 0 -3 -3 -9 -7 -13 -3 -4 -4 -17 -2 -30 2 -13 0 -27 -6
-30 -6 -4 -8 -11 -4 -16 3 -6 7 -28 8 -49 5 -84 102 -205 200 -250 47 -21 64
-37 69 -66 6 -30 18 -78 24 -94 3 -8 7 -20 8 -25 6 -24 67 -242 75 -265 4 -14
23 -79 40 -145 18 -66 41 -150 52 -187 11 -37 21 -75 23 -85 2 -10 4 -18 5
-18 1 0 3 -7 5 -15 20 -78 68 -250 75 -270 6 -14 12 -34 14 -45 2 -11 16 -63
31 -115 15 -52 29 -102 30 -110 2 -8 4 -16 5 -17 3 -3 3 -4 15 -48 10 -41 82
-293 94 -333 5 -18 10 -35 10 -37 1 -3 2 -7 2 -10 1 -3 3 -9 4 -15 1 -5 4 -12
5 -15 3 -6 4 -8 14 -55 7 -32 22 -84 34 -120 3 -8 7 -24 9 -35 2 -11 8 -31 13
-45 5 -14 11 -35 13 -47 2 -12 6 -26 10 -29 4 -4 7 -16 7 -26 0 -10 5 -18 10
-18 6 0 10 -8 10 -17 0 -35 129 -137 189 -148 9 -2 16 -4 16 -5 0 -1 14 -3 30
-5 17 -2 35 -4 40 -5 6 -1 12 -2 15 0 3 1 21 3 40 5 47 6 59 9 102 27 40 18
118 93 118 114 0 8 4 14 9 14 9 0 24 67 25 110 1 21 -28 134 -52 203 -11 31
-18 57 -15 57 3 0 1 6 -4 13 -6 6 -13 26 -17 42 -4 17 -27 93 -52 170 -25 77
-47 147 -49 155 -2 8 -10 35 -18 60 -8 25 -34 106 -57 180 -23 74 -47 149 -53
165 -6 17 -11 33 -10 37 2 4 -6 28 -17 53 -11 25 -20 47 -20 50 0 3 0 6 -1 8
0 1 -2 9 -4 17 -1 8 -24 83 -50 165 -27 83 -48 156 -48 163 0 6 -3 12 -7 12
-4 0 -7 6 -7 13 0 6 -23 84 -51 172 -28 88 -69 221 -92 295 -23 74 -44 142
-47 150 -23 59 -22 75 8 109 15 18 31 41 34 52 4 10 10 19 14 19 7 0 12 23 15
68 0 12 5 22 9 22 5 0 5 5 1 12 -4 6 -8 26 -9 44 -1 35 -43 134 -57 134 -4 0
-8 7 -8 15 0 8 -3 15 -7 15 -5 0 -24 15 -43 33 -36 34 -147 93 -191 101 -13 3
-24 5 -24 6 0 12 -170 18 -225 8z"/>
<path d="M2445 9389 c-134 -23 -234 -70 -312 -147 -168 -166 -134 -394 78
-511 46 -25 55 -35 62 -68 4 -21 6 -46 3 -55 -2 -9 0 -18 4 -20 4 -2 10 -27
14 -57 4 -30 9 -64 11 -75 5 -26 16 -91 20 -131 3 -28 7 -46 20 -115 2 -14 7
-42 9 -64 3 -21 8 -46 10 -55 3 -9 7 -34 10 -56 5 -42 14 -102 22 -145 2 -14
7 -41 10 -60 18 -116 28 -159 49 -199 13 -25 24 -42 25 -38 0 4 10 -2 23 -15
39 -41 95 -61 202 -72 37 -4 129 17 174 40 44 22 114 91 137 135 20 39 22 122
6 194 -7 28 -14 61 -16 75 -3 14 -7 35 -10 46 -10 47 -19 100 -20 122 -1 12
-3 22 -6 22 -4 0 -6 10 -7 23 0 12 -11 72 -23 132 -12 61 -24 119 -26 130 -2
11 -7 34 -11 50 -3 17 -7 39 -9 50 -1 11 -9 55 -18 97 -9 43 -18 93 -20 110
-3 18 -6 34 -7 36 -9 12 2 33 34 65 84 83 113 217 70 324 -44 108 -180 208
-310 229 -57 9 -154 10 -198 3z"/>
<path d="M502 9108 c-57 -6 -151 -31 -177 -47 -5 -3 -14 -6 -20 -7 -14 -2
-108 -58 -135 -80 -61 -51 -104 -104 -135 -169 -39 -80 -41 -187 -6 -255 28
-54 87 -113 141 -140 22 -11 40 -26 40 -33 6 -237 27 -808 36 -992 6 -129 7
-141 24 -180 6 -16 13 -34 14 -40 5 -22 37 -72 68 -106 72 -78 215 -175 418
-282 130 -68 204 -109 218 -120 6 -5 12 -6 12 -1 0 5 4 4 8 -2 6 -10 72 -47
227 -129 33 -18 78 -42 100 -55 22 -13 54 -30 70 -38 17 -9 75 -41 130 -71 55
-31 118 -65 140 -76 22 -11 42 -23 43 -27 2 -5 8 -8 12 -8 5 0 71 -34 147 -76
75 -42 176 -97 223 -122 47 -24 116 -62 153 -83 38 -22 73 -39 78 -39 5 0 9
-5 9 -12 0 -6 3 -8 7 -5 3 4 11 3 17 -2 6 -4 36 -22 66 -38 30 -17 86 -47 123
-67 37 -20 100 -54 139 -75 130 -70 169 -127 194 -281 3 -19 12 -73 19 -120 8
-47 17 -103 20 -125 3 -22 8 -51 11 -65 3 -13 8 -40 10 -60 2 -19 7 -46 10
-60 2 -14 7 -41 9 -60 3 -19 7 -42 10 -50 2 -8 7 -35 10 -60 9 -64 55 -332 60
-350 7 -27 19 -114 19 -147 1 -18 4 -33 8 -33 5 0 7 -3 6 -8 -2 -7 10 -95 18
-137 9 -42 14 -73 19 -106 2 -19 7 -45 9 -59 13 -65 35 -203 34 -208 0 -4 0
-9 2 -12 1 -3 3 -16 6 -30 2 -14 9 -56 16 -95 6 -38 12 -77 14 -85 1 -8 5 -31
8 -50 4 -19 8 -48 11 -65 2 -16 9 -57 15 -90 6 -33 13 -76 16 -95 3 -19 7 -46
10 -60 9 -50 14 -86 18 -115 2 -16 7 -41 10 -55 3 -14 8 -43 11 -65 3 -22 7
-47 10 -55 5 -19 16 -97 18 -127 0 -13 5 -23 10 -23 4 0 6 -4 2 -9 -3 -5 -1
-29 4 -53 6 -24 11 -61 13 -81 1 -21 6 -40 10 -43 9 -6 -7 -48 -31 -83 -32
-45 -71 -119 -71 -135 0 -9 -4 -16 -9 -16 -5 0 -12 -19 -16 -42 -4 -24 -11
-47 -15 -53 -22 -28 -34 -297 -17 -375 19 -87 89 -248 114 -263 7 -4 13 -14
13 -20 0 -20 96 -114 158 -155 57 -38 141 -76 197 -88 84 -18 298 -3 352 25
10 5 40 20 68 32 49 24 63 33 90 57 8 7 15 11 15 8 0 -17 125 115 163 172 47
71 98 174 100 204 1 10 4 18 7 18 4 0 7 6 8 13 1 12 6 41 21 107 4 19 7 45 6
57 -1 13 2 23 6 23 5 0 6 6 4 13 -3 6 -7 44 -10 82 -6 95 -9 111 -30 180 -10
33 -18 63 -17 68 1 4 -3 7 -9 7 -5 0 -8 4 -5 9 10 16 -77 146 -138 207 -58 57
-151 124 -173 124 -9 0 -32 88 -48 183 -9 49 -13 71 -40 202 -15 72 -29 139
-31 150 -2 11 -6 31 -9 45 -3 14 -7 35 -10 48 -2 13 -6 31 -9 40 -3 9 -8 37
-11 61 -3 23 -7 46 -10 51 -2 4 -7 22 -9 41 -3 19 -12 66 -20 104 -8 39 -17
84 -20 100 -3 17 -15 73 -26 125 -11 52 -22 110 -26 129 -3 18 -8 43 -10 55
-3 11 -7 32 -10 46 -3 14 -7 36 -10 50 -3 14 -7 34 -9 45 -2 11 -20 99 -40
195 -20 96 -38 186 -40 200 -2 14 -6 34 -9 45 -9 38 -47 230 -52 265 -3 19 -8
39 -11 43 -2 4 -7 24 -9 44 -3 20 -13 77 -24 127 -11 50 -21 102 -24 116 -8
47 -19 105 -23 125 -3 11 -6 30 -8 42 -2 11 -6 31 -10 43 -8 24 -15 66 -16 90
-1 8 -5 29 -10 45 -5 17 -11 48 -15 70 -10 69 -64 189 -126 282 -29 43 -131
153 -142 153 -4 0 -18 12 -31 26 -14 15 -25 23 -25 18 0 -5 -4 -4 -8 2 -11 17
-75 55 -202 120 -63 32 -117 61 -120 64 -3 3 -43 24 -90 48 -91 46 -325 168
-468 242 -48 25 -168 88 -267 139 -99 51 -186 98 -192 103 -7 6 -13 7 -13 2 0
-5 -4 -4 -8 1 -4 6 -49 32 -101 59 -497 256 -758 393 -784 411 -56 39 -66 86
-82 400 -3 44 -7 103 -9 130 -3 28 -8 86 -11 130 -3 44 -8 98 -10 120 -3 22
-7 81 -10 130 -3 50 -7 114 -9 142 -4 51 -3 54 40 93 83 76 124 150 138 251
13 86 -53 221 -127 264 -18 10 -34 21 -37 25 -7 8 -88 43 -108 47 -113 18
-164 20 -240 11z"/>
<path d="M1138 5605 c-2 -2 -23 -5 -48 -8 -69 -9 -80 -13 -144 -43 -103 -49
-187 -146 -220 -258 -12 -40 -13 -166 -2 -346 3 -47 8 -130 11 -185 3 -55 8
-129 10 -165 3 -36 8 -110 10 -165 3 -55 7 -134 10 -175 3 -41 7 -111 10 -155
2 -44 7 -129 11 -190 3 -60 7 -146 9 -190 2 -44 4 -80 5 -80 1 0 3 -31 5 -70
3 -84 13 -261 21 -365 3 -41 7 -113 9 -160 7 -140 14 -270 20 -360 3 -47 8
-128 11 -180 7 -140 13 -245 19 -335 17 -265 16 -275 -13 -314 -15 -20 -33
-42 -39 -49 -25 -26 -92 -149 -116 -212 -47 -122 -41 -103 -60 -210 -20 -111
-13 -245 19 -372 1 -5 2 -9 3 -10 2 -2 4 -13 7 -24 4 -24 54 -120 87 -169 22
-32 127 -135 139 -135 4 0 13 -6 20 -13 33 -32 217 -95 239 -81 4 2 10 0 14
-6 4 -6 11 -8 16 -4 9 5 85 9 99 4 3 0 23 -3 45 -5 21 -3 55 -7 75 -10 19 -3
51 -8 70 -11 19 -2 46 -6 60 -9 14 -2 54 -7 90 -11 36 -3 79 -8 95 -10 17 -1
62 -6 100 -9 39 -3 90 -8 115 -10 125 -12 181 -16 250 -20 41 -3 109 -7 150
-10 73 -5 220 -12 410 -20 52 -2 145 -7 205 -10 61 -3 180 -7 265 -10 85 -2
263 -7 395 -11 312 -10 1927 -10 2295 0 157 4 359 9 450 12 91 2 226 6 300 9
74 3 187 7 250 10 63 2 176 7 250 10 74 4 171 8 216 9 44 2 86 6 92 10 6 3 13
2 17 -4 4 -6 11 -7 17 -4 6 4 38 8 72 10 33 2 104 6 156 9 52 3 129 7 170 9
41 2 118 7 170 10 52 4 127 9 165 12 88 6 176 13 240 19 28 2 86 7 130 11 44
3 83 8 87 10 5 3 8 0 8 -7 0 -8 4 -8 13 -2 6 6 19 10 27 11 32 0 177 12 220
17 25 3 70 7 100 10 30 2 75 7 100 10 25 2 72 7 105 10 33 4 71 8 85 10 81 11
111 15 160 20 30 4 62 8 70 10 8 2 38 7 65 10 28 3 62 8 78 10 15 3 42 7 60
10 292 49 503 114 521 162 13 34 -46 84 -116 97 -7 1 -31 8 -53 14 -53 15 -96
25 -117 27 -10 2 -19 3 -20 5 -5 3 -47 10 -168 25 -25 3 -52 7 -60 10 -8 2
-46 7 -85 10 -38 4 -83 9 -100 11 -16 2 -57 6 -89 8 -33 3 -78 8 -100 11 -74
9 -357 31 -521 41 -447 25 -1092 44 -1645 48 -146 1 -271 6 -278 10 -7 4 -12
4 -12 -1 0 -4 -280 -8 -623 -9 -497 -1 -1192 -9 -1192 -14 0 -1 -88 -3 -195
-6 -239 -5 -435 -12 -435 -14 0 -1 -52 -3 -115 -5 -140 -5 -365 -14 -365 -15
0 -1 -52 -3 -115 -5 -63 -2 -153 -7 -200 -9 -264 -16 -330 -20 -550 -31 -52
-3 -129 -8 -170 -11 -41 -4 -91 -7 -110 -9 -153 -10 -240 -17 -270 -20 -19 -2
-71 -7 -115 -10 -44 -3 -96 -8 -115 -10 -53 -6 -161 -17 -195 -20 -16 -1 -55
-6 -85 -9 -185 -22 -210 -24 -210 -16 0 4 13 25 29 47 16 22 32 49 35 61 4 12
12 22 18 22 6 0 9 3 5 6 -3 4 5 27 18 53 55 110 83 253 78 408 -4 140 -5 143
-12 143 -3 0 -7 10 -8 23 -5 53 -63 186 -96 223 -7 7 -30 35 -52 63 -22 27
-45 50 -52 51 -6 0 -18 8 -25 18 -7 9 -30 26 -50 37 -21 11 -38 22 -39 25 -2
14 -8 84 -13 162 -2 49 -7 91 -9 95 -2 5 -5 24 -6 43 -1 19 -3 55 -6 80 -3 25
-7 74 -10 110 -3 36 -8 85 -11 110 -3 25 -7 68 -9 95 -3 28 -6 70 -9 95 -2 25
-8 81 -11 125 -4 44 -9 91 -10 105 -2 14 -6 57 -9 95 -4 39 -9 88 -11 110 -2
22 -7 69 -10 105 -3 36 -8 85 -10 110 -2 25 -7 70 -10 100 -2 30 -7 78 -10
107 -3 28 -8 80 -11 115 -2 35 -6 81 -9 103 -2 22 -7 72 -10 110 -4 39 -8 86
-10 105 -3 19 -7 64 -10 100 -6 76 -13 147 -20 210 -3 25 -7 74 -10 110 -3 36
-7 81 -10 100 -4 36 -15 156 -20 220 -2 19 -6 60 -9 90 -8 83 -17 190 -21 240
-10 118 -23 155 -73 218 -39 49 -106 86 -180 100 -28 5 -53 8 -54 7z"/>
</g>
</svg>
